<?xml version="1.0" encoding="UTF-8"?>
<svg xmlns="http://www.w3.org/2000/svg" xmlns:xlink="http://www.w3.org/1999/xlink" width="25px" height="25px" viewBox="0 0 25 24" version="1.1">
<g id="surface1">
<path style=" stroke:none;fill-rule:nonzero;fill:rgb(94.117647%,31.764706%,20%);fill-opacity:1;" d="M 23.894531 10.988281 L 13.554688 1.0625 C 12.960938 0.488281 11.992188 0.488281 11.398438 1.0625 L 9.25 3.125 L 11.972656 5.738281 C 12.605469 5.53125 13.332031 5.671875 13.835938 6.15625 C 14.34375 6.640625 14.488281 7.34375 14.265625 7.953125 L 16.894531 10.476562 C 17.527344 10.265625 18.261719 10.402344 18.769531 10.886719 C 19.476562 11.570312 19.476562 12.671875 18.769531 13.351562 C 18.058594 14.03125 16.910156 14.03125 16.199219 13.351562 C 15.667969 12.839844 15.535156 12.085938 15.804688 11.457031 L 13.359375 9.105469 L 13.359375 15.292969 C 13.53125 15.375 13.691406 15.484375 13.835938 15.621094 C 14.546875 16.300781 14.546875 17.402344 13.835938 18.085938 C 13.128906 18.765625 11.980469 18.765625 11.269531 18.085938 C 10.5625 17.402344 10.5625 16.300781 11.269531 15.621094 C 11.445312 15.453125 11.648438 15.324219 11.867188 15.242188 L 11.867188 9 C 11.648438 8.914062 11.445312 8.789062 11.269531 8.617188 C 10.734375 8.101562 10.605469 7.347656 10.878906 6.714844 L 8.195312 4.136719 L 1.105469 10.941406 C 0.507812 11.515625 0.507812 12.441406 1.105469 13.011719 L 11.445312 22.9375 C 12.039062 23.511719 13.007812 23.511719 13.601562 22.9375 L 23.894531 13.058594 C 24.488281 12.488281 24.488281 11.558594 23.894531 10.988281 Z M 23.894531 10.988281 "/>
</g>
</svg>
